<?xml version="1.0" standalone="no"?><svg xmlns:xlink="http://www.w3.org/1999/xlink" xmlns="http://www.w3.org/2000/svg" viewBox="0 0 1000 714.2693169092945" preserveAspectRatio="xMaxYMax slice"><g transform="scale(2.799552071668533)"><rect x="0" y="0" width="357.2" height="255.1428571428571" fill="#ffffff"/><rect x="0" y="0" width="51.03" height="51.03" fill="#9a7f93"/><path d="M 0 51.03 A 51.03 51.03 0 0 0 51.03 0 L 0 0" fill="#a07495"/><rect x="51.028571428571425" y="0" width="51.028571428571425" height="51.028571428571425" fill="#ffffff"/><rect x="51.03" y="0" width="25.51" height="25.51" fill="#8b6d83"/><path d="M 51.03 25.51 A 25.51 25.51 0 0 0 76.54 0 L 51.03 0" fill="#d5c9d2"/><rect x="76.54" y="0" width="25.51" height="25.51" fill="#bfa2b8"/><path d="M 76.54 0 A 25.51 25.51 0 0 1  102.05000000000001 25.51 L 76.54 0 A 25.51 25.51 0 0 0 102.05000000000001 25.51" fill="#a47a9a"/><rect x="51.03" y="25.51" width="25.51" height="25.51" fill="#b390aa"/><path d="M 51.03 25.51 A 25.51 25.51 0 0 0 76.54 51.02 L 76.54 25.51" fill="#7e5c75"/><rect x="76.54" y="25.51" width="25.51" height="25.51" fill="#e6dae3"/><path d="M 76.54 51.02 A 25.51 25.51 0 0 1  102.05000000000001 25.51 L 102.05000000000001 51.02" fill="#bfaebb"/><rect x="102.05714285714285" y="0" width="51.028571428571425" height="51.028571428571425" fill="#ffffff"/><rect x="102.06" y="0" width="25.51" height="25.51" fill="#8a547d"/><path d="M 102.06 0 A 25.51 25.51 0 0 1 127.57000000000001 25.51 L 102.06 25.51" fill="#854e78"/><rect x="127.57" y="0" width="25.51" height="25.51" fill="#a790a1"/><path d="M 127.57 0 A 25.51 25.51 0 0 0 153.07999999999998 25.51 L 153.07999999999998 0" fill="#f4f0f3"/><rect x="102.06" y="25.51" width="25.51" height="25.51" fill="#f5f1f4"/><path d="M 102.06 25.51 A 25.51 25.51 0 0 0 127.57000000000001 51.02 L 127.57000000000001 25.51" fill="#aa83a1"/><rect x="127.57" y="25.51" width="25.51" height="25.51" fill="#aa84a1"/><path d="M 127.57 25.51 A 25.51 25.51 0 0 1  153.07999999999998 51.02 L 127.57 25.51 A 25.51 25.51 0 0 0 153.07999999999998 51.02" fill="#bfa1b7"/><rect x="153.09" y="0" width="51.03" height="51.03" fill="#92758b"/><path d="M 153.09 51.03 A 51.03 51.03 0 0 1  204.12 0 L 204.12 51.03" fill="#b6a3b1"/><rect x="204.1142857142857" y="0" width="51.028571428571425" height="51.028571428571425" fill="#ffffff"/><rect x="204.11" y="0" width="25.51" height="25.51" fill="#ebe6ea"/><path d="M 204.11 25.51 A 25.51 25.51 0 0 1  229.62 0 L 229.62 25.51" fill="#7e5c76"/><rect x="229.63" y="0" width="25.51" height="25.51" fill="#faf8f9"/><path d="M 229.63 25.51 A 25.51 25.51 0 0 1  255.14 0 L 255.14 25.51" fill="#826179"/><rect x="204.11" y="25.51" width="25.51" height="25.51" fill="#eae1e8"/><path d="M 204.11 25.51 A 25.51 25.51 0 0 0 229.62 51.02 L 229.62 25.51" fill="#deceda"/><rect x="229.63" y="25.51" width="25.51" height="25.51" fill="#bc9db4"/><path d="M 229.63 25.51 A 25.51 25.51 0 0 0 255.14 51.02 L 255.14 25.51" fill="#ccb5c7"/><rect x="255.1428571428571" y="0" width="51.028571428571425" height="51.028571428571425" fill="#ffffff"/><rect x="255.14" y="0" width="25.51" height="25.51" fill="#633958"/><path d="M 255.14 0 A 25.51 25.51 0 0 0 280.65 25.51 L 280.65 0" fill="#a07596"/><rect x="280.66" y="0" width="25.51" height="25.51" fill="#a38b9d"/><path d="M 280.66 0 A 25.51 25.51 0 0 0 306.17 25.51 L 306.17 0" fill="#7e4370"/><rect x="255.14" y="25.51" width="25.51" height="25.51" fill="#fefdfd"/><path d="M 255.14 51.02 A 25.51 25.51 0 0 1  280.65 25.51 L 280.65 51.02" fill="#b08ba7"/><rect x="280.66" y="25.51" width="25.51" height="25.51" fill="#b9a7b4"/><path d="M 280.66 51.02 A 25.51 25.51 0 0 1  306.17 25.51 L 280.66 51.02 A 25.51 25.51 0 0 0 306.17 25.51" fill="#b29ead"/><rect x="306.1714285714286" y="0" width="51.028571428571425" height="51.028571428571425" fill="#ffffff"/><rect x="306.17" y="0" width="25.51" height="25.51" fill="#896981"/><path d="M 306.17 25.51 A 25.51 25.51 0 0 1  331.68 0 L 306.17 25.51 A 25.51 25.51 0 0 0 331.68 0" fill="#e8e2e6"/><rect x="331.69" y="0" width="25.51" height="25.51" fill="#b593ad"/><path d="M 331.69 25.51 A 25.51 25.51 0 0 1  357.2 0 L 331.69 25.51 A 25.51 25.51 0 0 0 357.2 0" fill="#854d77"/><rect x="306.17" y="25.51" width="25.51" height="25.51" fill="#e6dae3"/><path d="M 306.17 25.51 A 25.51 25.51 0 0 0 331.68 51.02 L 331.68 25.51" fill="#663d5b"/><rect x="331.69" y="25.51" width="25.51" height="25.51" fill="#eeeaed"/><path d="M 331.69 25.51 A 25.51 25.51 0 0 0 357.2 51.02 L 357.2 25.51" fill="#734e6a"/><rect x="0" y="51.028571428571425" width="51.028571428571425" height="51.028571428571425" fill="#ffffff"/><rect x="0" y="51.03" width="25.51" height="25.51" fill="#6b4462"/><path d="M 0 76.54 A 25.51 25.51 0 0 0 25.51 51.03 L 0 51.03" fill="#e6e0e5"/><rect x="25.51" y="51.03" width="25.51" height="25.51" fill="#c6acbf"/><path d="M 25.51 51.03 A 25.51 25.51 0 0 1 51.02 76.54 L 25.51 76.54" fill="#bb9cb3"/><rect x="0" y="76.54" width="25.51" height="25.51" fill="#ebe1e8"/><path d="M 0 76.54 A 25.51 25.51 0 0 1 25.51 102.05000000000001 L 0 102.05000000000001" fill="#cfbaca"/><rect x="25.51" y="76.54" width="25.51" height="25.51" fill="#85657d"/><path d="M 25.51 102.05000000000001 A 25.51 25.51 0 0 1  51.02 76.54 L 51.02 102.05000000000001" fill="#c1a4ba"/><rect x="51.03" y="51.03" width="51.03" height="51.03" fill="#814773"/><path d="M 51.03 102.06 A 51.03 51.03 0 0 1  102.06 51.03 L 102.06 102.06" fill="#dac8d5"/><rect x="102.05714285714285" y="51.028571428571425" width="51.028571428571425" height="51.028571428571425" fill="#ffffff"/><rect x="102.06" y="51.03" width="25.51" height="25.51" fill="#b6a3b1"/><path d="M 102.06 76.54 A 25.51 25.51 0 0 1  127.57000000000001 51.03 L 102.06 76.54 A 25.51 25.51 0 0 0 127.57000000000001 51.03" fill="#f3f0f2"/><rect x="127.57" y="51.03" width="25.51" height="25.51" fill="#a07495"/><path d="M 127.57 76.54 A 25.51 25.51 0 0 1  153.07999999999998 51.03 L 127.57 76.54 A 25.51 25.51 0 0 0 153.07999999999998 51.03" fill="#69415f"/><rect x="102.06" y="76.54" width="25.51" height="25.51" fill="#b28ea9"/><path d="M 102.06 76.54 A 25.51 25.51 0 0 1  127.57000000000001 102.05000000000001 L 102.06 76.54 A 25.51 25.51 0 0 0 127.57000000000001 102.05000000000001" fill="#e0d1dc"/><rect x="127.57" y="76.54" width="25.51" height="25.51" fill="#6d4764"/><path d="M 127.57 102.05000000000001 A 25.51 25.51 0 0 1  153.07999999999998 76.54 L 127.57 102.05000000000001 A 25.51 25.51 0 0 0 153.07999999999998 76.54" fill="#ae99a9"/><rect x="153.09" y="51.03" width="51.03" height="51.03" fill="#f7f5f6"/><path d="M 153.09 102.06 A 51.03 51.03 0 0 1  204.12 51.03 L 153.09 102.06 A 51.03 51.03 0 0 0 204.12 51.03" fill="#ad87a3"/><rect x="204.1142857142857" y="51.028571428571425" width="51.028571428571425" height="51.028571428571425" fill="#ffffff"/><rect x="204.11" y="51.03" width="25.51" height="25.51" fill="#e3d6e0"/><path d="M 204.11 51.03 A 25.51 25.51 0 0 1  229.62 76.54 L 204.11 51.03 A 25.51 25.51 0 0 0 229.62 76.54" fill="#eeeaed"/><rect x="229.63" y="51.03" width="25.51" height="25.51" fill="#f0e9ee"/><path d="M 229.63 51.03 A 25.51 25.51 0 0 0 255.14 76.54 L 255.14 51.03" fill="#c5aabe"/><rect x="204.11" y="76.54" width="25.51" height="25.51" fill="#633a59"/><path d="M 204.11 102.05000000000001 A 25.51 25.51 0 0 1  229.62 76.54 L 229.62 102.05000000000001" fill="#896a81"/><rect x="229.63" y="76.54" width="25.51" height="25.51" fill="#9f8699"/><path d="M 229.63 102.05000000000001 A 25.51 25.51 0 0 1  255.14 76.54 L 229.63 102.05000000000001 A 25.51 25.51 0 0 0 255.14 76.54" fill="#eeeaed"/><rect x="255.1428571428571" y="51.028571428571425" width="51.028571428571425" height="51.028571428571425" fill="#ffffff"/><rect x="255.14" y="51.03" width="25.51" height="25.51" fill="#e2dae0"/><path d="M 255.14 51.03 A 25.51 25.51 0 0 0 280.65 76.54 L 280.65 51.03" fill="#bba9b6"/><rect x="280.66" y="51.03" width="25.51" height="25.51" fill="#b390aa"/><path d="M 280.66 51.03 A 25.51 25.51 0 0 1 306.17 76.54 L 280.66 76.54" fill="#ece4ea"/><rect x="255.14" y="76.54" width="25.51" height="25.51" fill="#69415f"/><path d="M 255.14 102.05000000000001 A 25.51 25.51 0 0 1  280.65 76.54 L 255.14 102.05000000000001 A 25.51 25.51 0 0 0 280.65 76.54" fill="#f4f1f3"/><rect x="280.66" y="76.54" width="25.51" height="25.51" fill="#a9819f"/><path d="M 280.66 76.54 A 25.51 25.51 0 0 0 306.17 102.05000000000001 L 306.17 76.54" fill="#7a5771"/><rect x="306.17" y="51.03" width="51.03" height="51.03" fill="#b491ab"/><path d="M 306.17 102.06 A 51.03 51.03 0 0 1  357.20000000000005 51.03 L 357.20000000000005 102.06" fill="#b38faa"/><rect x="0" y="102.06" width="51.03" height="51.03" fill="#e1d4de"/><path d="M 0 102.06 A 51.03 51.03 0 0 1 51.03 153.09 L 0 153.09" fill="#ede5eb"/><rect x="51.028571428571425" y="102.05714285714285" width="51.028571428571425" height="51.028571428571425" fill="#ffffff"/><rect x="51.03" y="102.06" width="25.51" height="25.51" fill="#936287"/><path d="M 51.03 127.57000000000001 A 25.51 25.51 0 0 0 76.54 102.06 L 51.03 102.06" fill="#915f85"/><rect x="76.54" y="102.06" width="25.51" height="25.51" fill="#a07495"/><path d="M 76.54 127.57000000000001 A 25.51 25.51 0 0 1  102.05000000000001 102.06 L 76.54 127.57000000000001 A 25.51 25.51 0 0 0 102.05000000000001 102.06" fill="#f6f2f5"/><rect x="51.03" y="127.57" width="25.51" height="25.51" fill="#ba9bb3"/><path d="M 51.03 127.57 A 25.51 25.51 0 0 1  76.54 153.07999999999998 L 51.03 127.57 A 25.51 25.51 0 0 0 76.54 153.07999999999998" fill="#8f5b82"/><rect x="76.54" y="127.57" width="25.51" height="25.51" fill="#7f5d76"/><path d="M 76.54 127.57 A 25.51 25.51 0 0 1 102.05000000000001 153.07999999999998 L 76.54 153.07999999999998" fill="#b29dad"/><rect x="102.06" y="102.06" width="51.03" height="51.03" fill="#5b3050"/><path d="M 102.06 153.09 A 51.03 51.03 0 0 1  153.09 102.06 L 153.09 153.09" fill="#926086"/><rect x="153.09" y="102.06" width="51.03" height="51.03" fill="#c1a4ba"/><path d="M 153.09 102.06 A 51.03 51.03 0 0 1  204.12 153.09 L 153.09 102.06 A 51.03 51.03 0 0 0 204.12 153.09" fill="#dbd2d9"/><rect x="204.1142857142857" y="102.05714285714285" width="51.028571428571425" height="51.028571428571425" fill="#ffffff"/><rect x="204.11" y="102.06" width="25.51" height="25.51" fill="#d3c7d0"/><path d="M 204.11 127.57000000000001 A 25.51 25.51 0 0 1  229.62 102.06 L 229.62 127.57000000000001" fill="#dfd7dd"/><rect x="229.63" y="102.06" width="25.51" height="25.51" fill="#f6f3f5"/><path d="M 229.63 102.06 A 25.51 25.51 0 0 1 255.14 127.57000000000001 L 229.63 127.57000000000001" fill="#decfdb"/><rect x="204.11" y="127.57" width="25.51" height="25.51" fill="#d5c1d0"/><path d="M 204.11 127.57 A 25.51 25.51 0 0 1 229.62 153.07999999999998 L 204.11 153.07999999999998" fill="#a77e9d"/><rect x="229.63" y="127.57" width="25.51" height="25.51" fill="#c0b0bc"/><path d="M 229.63 153.07999999999998 A 25.51 25.51 0 0 1  255.14 127.57 L 229.63 153.07999999999998 A 25.51 25.51 0 0 0 255.14 127.57" fill="#7d5b74"/><rect x="255.14" y="102.06" width="51.03" height="51.03" fill="#f2ebf0"/><path d="M 255.14 153.09 A 51.03 51.03 0 0 1  306.16999999999996 102.06 L 255.14 153.09 A 51.03 51.03 0 0 0 306.16999999999996 102.06" fill="#7f5e77"/><rect x="306.17" y="102.06" width="51.03" height="51.03" fill="#ded5dc"/><path d="M 306.17 153.09 A 51.03 51.03 0 0 0 357.20000000000005 102.06 L 306.17 102.06" fill="#c6abbf"/><rect x="0" y="153.09" width="51.03" height="51.03" fill="#b08ba7"/><path d="M 0 204.12 A 51.03 51.03 0 0 0 51.03 153.09 L 0 153.09" fill="#7b3f6d"/><rect x="51.03" y="153.09" width="51.03" height="51.03" fill="#e5d9e2"/><path d="M 51.03 153.09 A 51.03 51.03 0 0 1  102.06 204.12 L 51.03 153.09 A 51.03 51.03 0 0 0 102.06 204.12" fill="#e3d6e0"/><rect x="102.05714285714285" y="153.0857142857143" width="51.028571428571425" height="51.028571428571425" fill="#ffffff"/><rect x="102.06" y="153.09" width="25.51" height="25.51" fill="#96668a"/><path d="M 102.06 153.09 A 25.51 25.51 0 0 1 127.57000000000001 178.6 L 102.06 178.6" fill="#c5abbf"/><rect x="127.57" y="153.09" width="25.51" height="25.51" fill="#875079"/><path d="M 127.57 153.09 A 25.51 25.51 0 0 1 153.07999999999998 178.6 L 127.57 178.6" fill="#7f4571"/><rect x="102.06" y="178.6" width="25.51" height="25.51" fill="#834a75"/><path d="M 102.06 204.10999999999999 A 25.51 25.51 0 0 1  127.57000000000001 178.6 L 102.06 204.10999999999999 A 25.51 25.51 0 0 0 127.57000000000001 178.6" fill="#baa7b5"/><rect x="127.57" y="178.6" width="25.51" height="25.51" fill="#ccb5c7"/><path d="M 127.57 178.6 A 25.51 25.51 0 0 0 153.07999999999998 204.10999999999999 L 153.07999999999998 178.6" fill="#ae98a8"/><rect x="153.0857142857143" y="153.0857142857143" width="51.028571428571425" height="51.028571428571425" fill="#ffffff"/><rect x="153.09" y="153.09" width="25.51" height="25.51" fill="#f9f6f8"/><path d="M 153.09 153.09 A 25.51 25.51 0 0 1 178.6 178.6 L 153.09 178.6" fill="#b19cac"/><rect x="178.6" y="153.09" width="25.51" height="25.51" fill="#905d83"/><path d="M 178.6 153.09 A 25.51 25.51 0 0 0 204.10999999999999 178.6 L 204.10999999999999 153.09" fill="#d3bfcf"/><rect x="153.09" y="178.6" width="25.51" height="25.51" fill="#f9f7f9"/><path d="M 153.09 178.6 A 25.51 25.51 0 0 1  178.6 204.10999999999999 L 153.09 178.6 A 25.51 25.51 0 0 0 178.6 204.10999999999999" fill="#dcccd8"/><rect x="178.6" y="178.6" width="25.51" height="25.51" fill="#96668a"/><path d="M 178.6 204.10999999999999 A 25.51 25.51 0 0 0 204.10999999999999 178.6 L 178.6 178.6" fill="#bc9eb5"/><rect x="204.11" y="153.09" width="51.03" height="51.03" fill="#ddd4db"/><path d="M 204.11 204.12 A 51.03 51.03 0 0 0 255.14000000000001 153.09 L 204.11 153.09" fill="#cfb9ca"/><rect x="255.1428571428571" y="153.0857142857143" width="51.028571428571425" height="51.028571428571425" fill="#ffffff"/><rect x="255.14" y="153.09" width="25.51" height="25.51" fill="#91748a"/><path d="M 255.14 178.6 A 25.51 25.51 0 0 1  280.65 153.09 L 255.14 178.6 A 25.51 25.51 0 0 0 280.65 153.09" fill="#f9f8f9"/><rect x="280.66" y="153.09" width="25.51" height="25.51" fill="#a68ea0"/><path d="M 280.66 153.09 A 25.51 25.51 0 0 1 306.17 178.6 L 280.66 178.6" fill="#956489"/><rect x="255.14" y="178.6" width="25.51" height="25.51" fill="#a982a0"/><path d="M 255.14 178.6 A 25.51 25.51 0 0 0 280.65 204.10999999999999 L 280.65 178.6" fill="#925f85"/><rect x="280.66" y="178.6" width="25.51" height="25.51" fill="#f8f4f7"/><path d="M 280.66 178.6 A 25.51 25.51 0 0 0 306.17 204.10999999999999 L 306.17 178.6" fill="#a58ea0"/><rect x="306.1714285714286" y="153.0857142857143" width="51.028571428571425" height="51.028571428571425" fill="#ffffff"/><rect x="306.17" y="153.09" width="25.51" height="25.51" fill="#ebe2e9"/><path d="M 306.17 153.09 A 25.51 25.51 0 0 1  331.68 178.6 L 306.17 153.09 A 25.51 25.51 0 0 0 331.68 178.6" fill="#cdc0c9"/><rect x="331.69" y="153.09" width="25.51" height="25.51" fill="#e4dde2"/><path d="M 331.69 178.6 A 25.51 25.51 0 0 0 357.2 153.09 L 331.69 153.09" fill="#b08ba7"/><rect x="306.17" y="178.6" width="25.51" height="25.51" fill="#f4f1f3"/><path d="M 306.17 178.6 A 25.51 25.51 0 0 1  331.68 204.10999999999999 L 306.17 178.6 A 25.51 25.51 0 0 0 331.68 204.10999999999999" fill="#75516c"/><rect x="331.69" y="178.6" width="25.51" height="25.51" fill="#bba9b6"/><path d="M 331.69 178.6 A 25.51 25.51 0 0 1 357.2 204.10999999999999 L 331.69 204.10999999999999" fill="#5c3152"/><rect x="0" y="204.1142857142857" width="51.028571428571425" height="51.028571428571425" fill="#ffffff"/><rect x="0" y="204.11" width="25.51" height="25.51" fill="#886980"/><path d="M 0 204.11 A 25.51 25.51 0 0 0 25.51 229.62 L 25.51 204.11" fill="#ccb4c6"/><rect x="25.51" y="204.11" width="25.51" height="25.51" fill="#ae88a4"/><path d="M 25.51 229.62 A 25.51 25.51 0 0 1  51.02 204.11 L 51.02 229.62" fill="#9d7092"/><rect x="0" y="229.63" width="25.51" height="25.51" fill="#6e4864"/><path d="M 0 255.14 A 25.51 25.51 0 0 0 25.51 229.63 L 0 229.63" fill="#beadba"/><rect x="25.51" y="229.63" width="25.51" height="25.51" fill="#ab85a2"/><path d="M 25.51 229.63 A 25.51 25.51 0 0 1  51.02 255.14 L 25.51 229.63 A 25.51 25.51 0 0 0 51.02 255.14" fill="#8c6d84"/><rect x="51.028571428571425" y="204.1142857142857" width="51.028571428571425" height="51.028571428571425" fill="#ffffff"/><rect x="51.03" y="204.11" width="25.51" height="25.51" fill="#aa93a4"/><path d="M 51.03 229.62 A 25.51 25.51 0 0 1  76.54 204.11 L 76.54 229.62" fill="#f2edf1"/><rect x="76.54" y="204.11" width="25.51" height="25.51" fill="#d7c5d2"/><path d="M 76.54 204.11 A 25.51 25.51 0 0 0 102.05000000000001 229.62 L 102.05000000000001 204.11" fill="#8c587f"/><rect x="51.03" y="229.63" width="25.51" height="25.51" fill="#e6dae3"/><path d="M 51.03 229.63 A 25.51 25.51 0 0 1  76.54 255.14 L 51.03 229.63 A 25.51 25.51 0 0 0 76.54 255.14" fill="#b898b1"/><rect x="76.54" y="229.63" width="25.51" height="25.51" fill="#a17596"/><path d="M 76.54 229.63 A 25.51 25.51 0 0 0 102.05000000000001 255.14 L 102.05000000000001 229.63" fill="#76526d"/><rect x="102.06" y="204.11" width="51.03" height="51.03" fill="#faf8fa"/><path d="M 102.06 255.14000000000001 A 51.03 51.03 0 0 1  153.09 204.11 L 153.09 255.14000000000001" fill="#734e6a"/><rect x="153.0857142857143" y="204.1142857142857" width="51.028571428571425" height="51.028571428571425" fill="#ffffff"/><rect x="153.09" y="204.11" width="25.51" height="25.51" fill="#7c406d"/><path d="M 153.09 229.62 A 25.51 25.51 0 0 1  178.6 204.11 L 178.6 229.62" fill="#c5abbf"/><rect x="178.6" y="204.11" width="25.51" height="25.51" fill="#967b8f"/><path d="M 178.6 204.11 A 25.51 25.51 0 0 1 204.10999999999999 229.62 L 178.6 229.62" fill="#b08ba7"/><rect x="153.09" y="229.63" width="25.51" height="25.51" fill="#997f93"/><path d="M 153.09 255.14 A 25.51 25.51 0 0 0 178.6 229.63 L 153.09 229.63" fill="#936187"/><rect x="178.6" y="229.63" width="25.51" height="25.51" fill="#b09bab"/><path d="M 178.6 229.63 A 25.51 25.51 0 0 0 204.10999999999999 255.14 L 204.10999999999999 229.63" fill="#af8ba6"/><rect x="204.11" y="204.11" width="51.03" height="51.03" fill="#ab84a1"/><path d="M 204.11 204.11 A 51.03 51.03 0 0 1 255.14000000000001 255.14000000000001 L 204.11 255.14000000000001" fill="#946388"/><rect x="255.1428571428571" y="204.1142857142857" width="51.028571428571425" height="51.028571428571425" fill="#ffffff"/><rect x="255.14" y="204.11" width="25.51" height="25.51" fill="#dac9d6"/><path d="M 255.14 229.62 A 25.51 25.51 0 0 1  280.65 204.11 L 255.14 229.62 A 25.51 25.51 0 0 0 280.65 204.11" fill="#bc9db4"/><rect x="280.66" y="204.11" width="25.51" height="25.51" fill="#a47a9a"/><path d="M 280.66 229.62 A 25.51 25.51 0 0 0 306.17 204.11 L 280.66 204.11" fill="#ddcdd9"/><rect x="255.14" y="229.63" width="25.51" height="25.51" fill="#f1ebf0"/><path d="M 255.14 229.63 A 25.51 25.51 0 0 1 280.65 255.14 L 255.14 255.14" fill="#d5c2d1"/><rect x="280.66" y="229.63" width="25.51" height="25.51" fill="#744f6a"/><path d="M 280.66 255.14 A 25.51 25.51 0 0 1  306.17 229.63 L 306.17 255.14" fill="#88517a"/><rect x="306.17" y="204.11" width="51.03" height="51.03" fill="#ddceda"/><path d="M 306.17 204.11 A 51.03 51.03 0 0 0 357.20000000000005 255.14000000000001 L 357.20000000000005 204.11" fill="#b898b0"/></g></svg>